<svg xmlns="http://www.w3.org/2000/svg" xmlns:xlink="http://www.w3.org/1999/xlink" width="500" zoomAndPan="magnify" viewBox="0 0 375 374.999991" height="500" preserveAspectRatio="xMidYMid meet" version="1.0"><defs><g/><clipPath id="2a64e060ff"><path d="M 111 64.289062 L 254 64.289062 L 254 239 L 111 239 Z M 111 64.289062 " clip-rule="nonzero"/></clipPath><clipPath id="09221569f2"><path d="M 146 108.164062 L 219.453125 108.164062 L 219.453125 207.164062 L 146 207.164062 Z M 146 108.164062 " clip-rule="nonzero"/></clipPath></defs><rect x="-37.5" width="450" fill="#ffffff" y="-37.499999" height="449.999989" fill-opacity="1"/><rect x="-37.5" width="450" fill="#ffffff" y="-37.499999" height="449.999989" fill-opacity="1"/><g clip-path="url(#2a64e060ff)"><path fill="#2596be" d="M 161.503906 98.453125 C 154.683594 85.746094 144.242188 75.347656 131.519531 68.578125 C 124.902344 65.0625 116.679688 67.574219 113.148438 74.191406 C 112.191406 76.011719 111.652344 78.03125 111.574219 80.085938 C 111.066406 94.503906 114.859375 108.742188 122.449219 120.988281 C 125.425781 125.816406 130.039062 129.410156 135.453125 131.136719 C 139.136719 132.308594 143.007812 132.894531 146.878906 132.863281 C 149.457031 132.847656 151.816406 134.269531 152.988281 136.566406 L 174.410156 178.410156 L 145.660156 223.617188 C 142.902344 227.96875 144.179688 233.734375 148.515625 236.496094 C 152.863281 239.273438 158.632812 237.992188 161.410156 233.644531 C 161.546875 233.410156 161.6875 233.179688 161.808594 232.949219 L 182.261719 193.695312 L 202.359375 232.886719 C 204.65625 237.484375 210.257812 239.335938 214.851562 237.019531 C 219.449219 234.722656 221.300781 229.125 218.984375 224.527344 C 218.832031 224.203125 218.648438 223.894531 218.460938 223.601562 L 189.804688 179.242188 L 212.664062 135.410156 L 224.957031 132.09375 C 228.578125 131.105469 231.527344 128.515625 232.960938 125.058594 L 253.84375 74.65625 C 254.121094 74.054688 253.859375 73.328125 253.257812 73.050781 C 252.65625 72.789062 251.945312 73.050781 251.652344 73.636719 L 231.496094 113.015625 C 230.984375 114.140625 229.660156 114.617188 228.535156 114.109375 C 227.421875 113.601562 226.929688 112.289062 227.4375 111.164062 C 227.46875 111.101562 227.5 111.039062 227.546875 110.976562 L 248.429688 71.324219 C 248.675781 70.890625 248.523438 70.320312 248.074219 70.074219 C 247.644531 69.828125 247.074219 69.980469 246.824219 70.429688 C 246.8125 70.476562 246.78125 70.507812 246.765625 70.550781 L 224.910156 109.359375 C 224.324219 110.421875 222.996094 110.808594 221.949219 110.222656 C 220.882812 109.636719 220.511719 108.308594 221.097656 107.246094 C 221.097656 107.230469 221.113281 107.199219 221.128906 107.183594 L 243.820312 68.855469 C 244.113281 68.441406 244.019531 67.867188 243.617188 67.574219 C 243.203125 67.265625 242.632812 67.359375 242.335938 67.777344 C 242.335938 67.777344 242.324219 67.792969 242.324219 67.808594 L 218.429688 105.703125 C 217.796875 106.753906 216.425781 107.089844 215.378906 106.460938 C 214.328125 105.828125 213.988281 104.453125 214.621094 103.40625 C 214.636719 103.375 214.667969 103.34375 214.683594 103.3125 L 238.699219 66.15625 C 239.066406 65.601562 238.914062 64.847656 238.34375 64.492188 C 237.820312 64.136719 237.109375 64.257812 236.722656 64.769531 L 203.515625 108.046875 C 201.234375 111.023438 200.460938 114.894531 201.433594 118.503906 L 204.703125 130.8125 L 181.785156 166.84375 L 159.710938 132.679688 C 158.324219 130.519531 158.261719 127.773438 159.558594 125.570312 C 161.515625 122.207031 162.9375 118.566406 163.769531 114.773438 C 164.988281 109.234375 164.1875 103.4375 161.503906 98.453125 " fill-opacity="1" fill-rule="nonzero"/></g><g clip-path="url(#09221569f2)"><path fill="#2596be" d="M 219.164062 198.453125 C 219.164062 203.203125 215.308594 207.058594 210.558594 207.058594 L 154.667969 207.058594 C 149.917969 207.058594 146.066406 203.203125 146.066406 198.453125 L 146.066406 116.765625 C 146.066406 112.015625 149.917969 108.164062 154.667969 108.164062 L 210.558594 108.164062 C 215.308594 108.164062 219.164062 112.015625 219.164062 116.765625 L 219.164062 198.453125 " fill-opacity="1" fill-rule="nonzero"/></g><path fill="#ffffff" d="M 211.449219 131.9375 L 153.78125 131.9375 L 153.78125 117.015625 L 211.449219 117.015625 L 211.449219 131.9375 " fill-opacity="1" fill-rule="nonzero"/><path fill="#ffffff" d="M 165.351562 152.648438 C 165.351562 154.21875 164.082031 155.492188 162.511719 155.492188 L 154.34375 155.492188 C 152.773438 155.492188 151.503906 154.21875 151.503906 152.648438 L 151.503906 147.933594 C 151.503906 146.359375 152.773438 145.089844 154.34375 145.089844 L 162.511719 145.089844 C 164.082031 145.089844 165.351562 146.359375 165.351562 147.933594 L 165.351562 152.648438 " fill-opacity="1" fill-rule="nonzero"/><path fill="#ffffff" d="M 165.351562 165.960938 C 165.351562 167.527344 164.082031 168.800781 162.511719 168.800781 L 154.34375 168.800781 C 152.773438 168.800781 151.503906 167.527344 151.503906 165.960938 L 151.503906 161.242188 C 151.503906 159.671875 152.773438 158.402344 154.34375 158.402344 L 162.511719 158.402344 C 164.082031 158.402344 165.351562 159.671875 165.351562 161.242188 L 165.351562 165.960938 " fill-opacity="1" fill-rule="nonzero"/><path fill="#ffffff" d="M 165.351562 179.269531 C 165.351562 180.839844 164.082031 182.113281 162.511719 182.113281 L 154.34375 182.113281 C 152.773438 182.113281 151.503906 180.839844 151.503906 179.269531 L 151.503906 174.550781 C 151.503906 172.984375 152.773438 171.710938 154.34375 171.710938 L 162.511719 171.710938 C 164.082031 171.710938 165.351562 172.984375 165.351562 174.550781 L 165.351562 179.269531 " fill-opacity="1" fill-rule="nonzero"/><path fill="#ffffff" d="M 165.351562 192.582031 C 165.351562 194.148438 164.082031 195.421875 162.511719 195.421875 L 154.34375 195.421875 C 152.773438 195.421875 151.503906 194.148438 151.503906 192.582031 L 151.503906 187.863281 C 151.503906 186.292969 152.773438 185.019531 154.34375 185.019531 L 162.511719 185.019531 C 164.082031 185.019531 165.351562 186.292969 165.351562 187.863281 L 165.351562 192.582031 " fill-opacity="1" fill-rule="nonzero"/><path fill="#ffffff" d="M 181.476562 152.648438 C 181.476562 154.21875 180.203125 155.492188 178.636719 155.492188 L 170.46875 155.492188 C 168.898438 155.492188 167.628906 154.21875 167.628906 152.648438 L 167.628906 147.933594 C 167.628906 146.359375 168.898438 145.089844 170.46875 145.089844 L 178.636719 145.089844 C 180.203125 145.089844 181.476562 146.359375 181.476562 147.933594 L 181.476562 152.648438 " fill-opacity="1" fill-rule="nonzero"/><path fill="#ffffff" d="M 181.476562 165.960938 C 181.476562 167.527344 180.203125 168.800781 178.636719 168.800781 L 170.46875 168.800781 C 168.898438 168.800781 167.628906 167.527344 167.628906 165.960938 L 167.628906 161.242188 C 167.628906 159.671875 168.898438 158.402344 170.46875 158.402344 L 178.636719 158.402344 C 180.203125 158.402344 181.476562 159.671875 181.476562 161.242188 L 181.476562 165.960938 " fill-opacity="1" fill-rule="nonzero"/><path fill="#ffffff" d="M 181.476562 179.269531 C 181.476562 180.839844 180.203125 182.113281 178.636719 182.113281 L 170.46875 182.113281 C 168.898438 182.113281 167.628906 180.839844 167.628906 179.269531 L 167.628906 174.550781 C 167.628906 172.984375 168.898438 171.710938 170.46875 171.710938 L 178.636719 171.710938 C 180.203125 171.710938 181.476562 172.984375 181.476562 174.550781 L 181.476562 179.269531 " fill-opacity="1" fill-rule="nonzero"/><path fill="#ffffff" d="M 181.476562 192.582031 C 181.476562 194.148438 180.203125 195.421875 178.636719 195.421875 L 170.46875 195.421875 C 168.898438 195.421875 167.628906 194.148438 167.628906 192.582031 L 167.628906 187.863281 C 167.628906 186.292969 168.898438 185.019531 170.46875 185.019531 L 178.636719 185.019531 C 180.203125 185.019531 181.476562 186.292969 181.476562 187.863281 L 181.476562 192.582031 " fill-opacity="1" fill-rule="nonzero"/><path fill="#ffffff" d="M 197.597656 152.648438 C 197.597656 154.21875 196.328125 155.492188 194.761719 155.492188 L 186.59375 155.492188 C 185.023438 155.492188 183.75 154.21875 183.75 152.648438 L 183.75 147.933594 C 183.75 146.359375 185.023438 145.089844 186.59375 145.089844 L 194.761719 145.089844 C 196.328125 145.089844 197.597656 146.359375 197.597656 147.933594 L 197.597656 152.648438 " fill-opacity="1" fill-rule="nonzero"/><path fill="#ffffff" d="M 197.597656 165.960938 C 197.597656 167.527344 196.328125 168.800781 194.761719 168.800781 L 186.59375 168.800781 C 185.023438 168.800781 183.75 167.527344 183.75 165.960938 L 183.75 161.242188 C 183.75 159.671875 185.023438 158.402344 186.59375 158.402344 L 194.761719 158.402344 C 196.328125 158.402344 197.597656 159.671875 197.597656 161.242188 L 197.597656 165.960938 " fill-opacity="1" fill-rule="nonzero"/><path fill="#ffffff" d="M 197.597656 179.269531 C 197.597656 180.839844 196.328125 182.113281 194.761719 182.113281 L 186.59375 182.113281 C 185.023438 182.113281 183.75 180.839844 183.75 179.269531 L 183.75 174.550781 C 183.75 172.984375 185.023438 171.710938 186.59375 171.710938 L 194.761719 171.710938 C 196.328125 171.710938 197.597656 172.984375 197.597656 174.550781 L 197.597656 179.269531 " fill-opacity="1" fill-rule="nonzero"/><path fill="#ffffff" d="M 197.597656 192.582031 C 197.597656 194.148438 196.328125 195.421875 194.761719 195.421875 L 186.59375 195.421875 C 185.023438 195.421875 183.75 194.148438 183.75 192.582031 L 183.75 187.863281 C 183.75 186.292969 185.023438 185.019531 186.59375 185.019531 L 194.761719 185.019531 C 196.328125 185.019531 197.597656 186.292969 197.597656 187.863281 L 197.597656 192.582031 " fill-opacity="1" fill-rule="nonzero"/><path fill="#ffffff" d="M 213.722656 152.648438 C 213.722656 154.21875 212.453125 155.492188 210.882812 155.492188 L 202.71875 155.492188 C 201.148438 155.492188 199.875 154.21875 199.875 152.648438 L 199.875 147.933594 C 199.875 146.359375 201.148438 145.089844 202.71875 145.089844 L 210.882812 145.089844 C 212.453125 145.089844 213.722656 146.359375 213.722656 147.933594 L 213.722656 152.648438 " fill-opacity="1" fill-rule="nonzero"/><path fill="#ffffff" d="M 213.722656 165.960938 C 213.722656 167.527344 212.453125 168.800781 210.882812 168.800781 L 202.71875 168.800781 C 201.148438 168.800781 199.875 167.527344 199.875 165.960938 L 199.875 161.242188 C 199.875 159.671875 201.148438 158.402344 202.71875 158.402344 L 210.882812 158.402344 C 212.453125 158.402344 213.722656 159.671875 213.722656 161.242188 L 213.722656 165.960938 " fill-opacity="1" fill-rule="nonzero"/><path fill="#fdc472" d="M 213.722656 192.929688 C 213.722656 194.496094 212.453125 195.769531 210.882812 195.769531 L 202.71875 195.769531 C 201.148438 195.769531 199.875 194.496094 199.875 192.929688 L 199.875 174.550781 C 199.875 172.984375 201.148438 171.710938 202.71875 171.710938 L 210.882812 171.710938 C 212.453125 171.710938 213.722656 172.984375 213.722656 174.550781 L 213.722656 192.929688 " fill-opacity="1" fill-rule="nonzero"/><g fill="#2596be" fill-opacity="1"><g transform="translate(4.892866, 297.828791)"><g><path d="M 1.546875 -16.484375 C 1.546875 -19.734375 2.25 -22.628906 3.65625 -25.171875 C 5.0625 -27.710938 7.019531 -29.691406 9.53125 -31.109375 C 12.039062 -32.535156 14.890625 -33.25 18.078125 -33.25 C 21.972656 -33.25 25.3125 -32.21875 28.09375 -30.15625 C 30.875 -28.09375 32.734375 -25.285156 33.671875 -21.734375 L 24.859375 -21.734375 C 24.203125 -23.097656 23.273438 -24.140625 22.078125 -24.859375 C 20.878906 -25.578125 19.515625 -25.9375 17.984375 -25.9375 C 15.515625 -25.9375 13.515625 -25.078125 11.984375 -23.359375 C 10.453125 -21.648438 9.6875 -19.359375 9.6875 -16.484375 C 9.6875 -13.609375 10.453125 -11.3125 11.984375 -9.59375 C 13.515625 -7.882812 15.515625 -7.03125 17.984375 -7.03125 C 19.515625 -7.03125 20.878906 -7.382812 22.078125 -8.09375 C 23.273438 -8.8125 24.203125 -9.859375 24.859375 -11.234375 L 33.671875 -11.234375 C 32.734375 -7.679688 30.875 -4.878906 28.09375 -2.828125 C 25.3125 -0.785156 21.972656 0.234375 18.078125 0.234375 C 14.890625 0.234375 12.039062 -0.472656 9.53125 -1.890625 C 7.019531 -3.316406 5.0625 -5.289062 3.65625 -7.8125 C 2.25 -10.34375 1.546875 -13.234375 1.546875 -16.484375 Z M 1.546875 -16.484375 "/></g></g></g><g fill="#2596be" fill-opacity="1"><g transform="translate(40.577811, 297.828791)"><g><path d="M 1.3125 -13.109375 C 1.3125 -15.796875 1.816406 -18.15625 2.828125 -20.1875 C 3.847656 -22.21875 5.226562 -23.773438 6.96875 -24.859375 C 8.71875 -25.953125 10.671875 -26.5 12.828125 -26.5 C 14.671875 -26.5 16.285156 -26.125 17.671875 -25.375 C 19.066406 -24.625 20.140625 -23.644531 20.890625 -22.4375 L 20.890625 -26.125 L 28.890625 -26.125 L 28.890625 0 L 20.890625 0 L 20.890625 -3.703125 C 20.109375 -2.484375 19.019531 -1.5 17.625 -0.75 C 16.238281 0 14.625 0.375 12.78125 0.375 C 10.65625 0.375 8.71875 -0.175781 6.96875 -1.28125 C 5.226562 -2.394531 3.847656 -3.972656 2.828125 -6.015625 C 1.816406 -8.054688 1.3125 -10.421875 1.3125 -13.109375 Z M 20.890625 -13.0625 C 20.890625 -15.0625 20.332031 -16.640625 19.21875 -17.796875 C 18.113281 -18.953125 16.765625 -19.53125 15.171875 -19.53125 C 13.578125 -19.53125 12.222656 -18.957031 11.109375 -17.8125 C 10.003906 -16.675781 9.453125 -15.109375 9.453125 -13.109375 C 9.453125 -11.109375 10.003906 -9.523438 11.109375 -8.359375 C 12.222656 -7.191406 13.578125 -6.609375 15.171875 -6.609375 C 16.765625 -6.609375 18.113281 -7.179688 19.21875 -8.328125 C 20.332031 -9.484375 20.890625 -11.0625 20.890625 -13.0625 Z M 20.890625 -13.0625 "/></g></g></g><g fill="#2596be" fill-opacity="1"><g transform="translate(72.375813, 297.828791)"><g><path d="M 10.90625 -34.65625 L 10.90625 0 L 2.90625 0 L 2.90625 -34.65625 Z M 10.90625 -34.65625 "/></g></g></g><g fill="#2596be" fill-opacity="1"><g transform="translate(86.190852, 297.828791)"><g><path d="M 14.796875 0.375 C 12.234375 0.375 9.929688 -0.171875 7.890625 -1.265625 C 5.847656 -2.359375 4.238281 -3.914062 3.0625 -5.9375 C 1.894531 -7.96875 1.3125 -10.34375 1.3125 -13.0625 C 1.3125 -15.75 1.90625 -18.113281 3.09375 -20.15625 C 4.28125 -22.207031 5.898438 -23.773438 7.953125 -24.859375 C 10.015625 -25.953125 12.328125 -26.5 14.890625 -26.5 C 17.453125 -26.5 19.757812 -25.953125 21.8125 -24.859375 C 23.875 -23.773438 25.5 -22.207031 26.6875 -20.15625 C 27.875 -18.113281 28.46875 -15.75 28.46875 -13.0625 C 28.46875 -10.375 27.863281 -8.007812 26.65625 -5.96875 C 25.457031 -3.925781 23.820312 -2.359375 21.75 -1.265625 C 19.675781 -0.171875 17.359375 0.375 14.796875 0.375 Z M 14.796875 -6.5625 C 16.328125 -6.5625 17.628906 -7.117188 18.703125 -8.234375 C 19.785156 -9.359375 20.328125 -10.96875 20.328125 -13.0625 C 20.328125 -15.15625 19.800781 -16.765625 18.75 -17.890625 C 17.707031 -19.015625 16.421875 -19.578125 14.890625 -19.578125 C 13.328125 -19.578125 12.03125 -19.019531 11 -17.90625 C 9.96875 -16.800781 9.453125 -15.1875 9.453125 -13.0625 C 9.453125 -10.96875 9.957031 -9.359375 10.96875 -8.234375 C 11.988281 -7.117188 13.265625 -6.5625 14.796875 -6.5625 Z M 14.796875 -6.5625 "/></g></g></g><g fill="#2596be" fill-opacity="1"><g transform="translate(116.021966, 297.828791)"><g><path d="M 10.90625 -21.78125 C 11.84375 -23.207031 13.015625 -24.332031 14.421875 -25.15625 C 15.828125 -25.988281 17.390625 -26.40625 19.109375 -26.40625 L 19.109375 -17.9375 L 16.90625 -17.9375 C 14.90625 -17.9375 13.40625 -17.503906 12.40625 -16.640625 C 11.40625 -15.785156 10.90625 -14.28125 10.90625 -12.125 L 10.90625 0 L 2.90625 0 L 2.90625 -26.125 L 10.90625 -26.125 Z M 10.90625 -21.78125 "/></g></g></g><g fill="#2596be" fill-opacity="1"><g transform="translate(136.065474, 297.828791)"><g><path d="M 6.9375 -28.84375 C 5.53125 -28.84375 4.378906 -29.253906 3.484375 -30.078125 C 2.597656 -30.910156 2.15625 -31.9375 2.15625 -33.15625 C 2.15625 -34.40625 2.597656 -35.441406 3.484375 -36.265625 C 4.378906 -37.097656 5.53125 -37.515625 6.9375 -37.515625 C 8.300781 -37.515625 9.425781 -37.097656 10.3125 -36.265625 C 11.207031 -35.441406 11.65625 -34.40625 11.65625 -33.15625 C 11.65625 -31.9375 11.207031 -30.910156 10.3125 -30.078125 C 9.425781 -29.253906 8.300781 -28.84375 6.9375 -28.84375 Z M 10.90625 -26.125 L 10.90625 0 L 2.90625 0 L 2.90625 -26.125 Z M 10.90625 -26.125 "/></g></g></g><g fill="#2596be" fill-opacity="1"><g transform="translate(149.880514, 297.828791)"><g><path d="M 27.53125 -13.484375 C 27.53125 -12.734375 27.484375 -11.953125 27.390625 -11.140625 L 9.265625 -11.140625 C 9.390625 -9.515625 9.910156 -8.273438 10.828125 -7.421875 C 11.753906 -6.566406 12.890625 -6.140625 14.234375 -6.140625 C 16.234375 -6.140625 17.625 -6.976562 18.40625 -8.65625 L 26.921875 -8.65625 C 26.484375 -6.945312 25.695312 -5.40625 24.5625 -4.03125 C 23.425781 -2.65625 22 -1.578125 20.28125 -0.796875 C 18.5625 -0.015625 16.640625 0.375 14.515625 0.375 C 11.953125 0.375 9.671875 -0.171875 7.671875 -1.265625 C 5.679688 -2.359375 4.125 -3.914062 3 -5.9375 C 1.875 -7.96875 1.3125 -10.34375 1.3125 -13.0625 C 1.3125 -15.78125 1.863281 -18.15625 2.96875 -20.1875 C 4.082031 -22.21875 5.632812 -23.773438 7.625 -24.859375 C 9.625 -25.953125 11.921875 -26.5 14.515625 -26.5 C 17.046875 -26.5 19.289062 -25.96875 21.25 -24.90625 C 23.21875 -23.851562 24.753906 -22.34375 25.859375 -20.375 C 26.972656 -18.40625 27.53125 -16.109375 27.53125 -13.484375 Z M 19.34375 -15.59375 C 19.34375 -16.96875 18.875 -18.0625 17.9375 -18.875 C 17 -19.6875 15.828125 -20.09375 14.421875 -20.09375 C 13.078125 -20.09375 11.941406 -19.703125 11.015625 -18.921875 C 10.097656 -18.140625 9.53125 -17.03125 9.3125 -15.59375 Z M 19.34375 -15.59375 "/></g></g></g><g fill="#2596be" fill-opacity="1"><g transform="translate(178.728183, 297.828791)"><g/></g></g><g fill="#2596be" fill-opacity="1"><g transform="translate(188.656278, 297.828791)"><g><path d="M 1.546875 -16.484375 C 1.546875 -19.734375 2.25 -22.628906 3.65625 -25.171875 C 5.0625 -27.710938 7.019531 -29.691406 9.53125 -31.109375 C 12.039062 -32.535156 14.890625 -33.25 18.078125 -33.25 C 21.972656 -33.25 25.3125 -32.21875 28.09375 -30.15625 C 30.875 -28.09375 32.734375 -25.285156 33.671875 -21.734375 L 24.859375 -21.734375 C 24.203125 -23.097656 23.273438 -24.140625 22.078125 -24.859375 C 20.878906 -25.578125 19.515625 -25.9375 17.984375 -25.9375 C 15.515625 -25.9375 13.515625 -25.078125 11.984375 -23.359375 C 10.453125 -21.648438 9.6875 -19.359375 9.6875 -16.484375 C 9.6875 -13.609375 10.453125 -11.3125 11.984375 -9.59375 C 13.515625 -7.882812 15.515625 -7.03125 17.984375 -7.03125 C 19.515625 -7.03125 20.878906 -7.382812 22.078125 -8.09375 C 23.273438 -8.8125 24.203125 -9.859375 24.859375 -11.234375 L 33.671875 -11.234375 C 32.734375 -7.679688 30.875 -4.878906 28.09375 -2.828125 C 25.3125 -0.785156 21.972656 0.234375 18.078125 0.234375 C 14.890625 0.234375 12.039062 -0.472656 9.53125 -1.890625 C 7.019531 -3.316406 5.0625 -5.289062 3.65625 -7.8125 C 2.25 -10.34375 1.546875 -13.234375 1.546875 -16.484375 Z M 1.546875 -16.484375 "/></g></g></g><g fill="#2596be" fill-opacity="1"><g transform="translate(224.341223, 297.828791)"><g><path d="M 28.703125 -26.125 L 28.703125 0 L 20.703125 0 L 20.703125 -3.5625 C 19.890625 -2.40625 18.785156 -1.472656 17.390625 -0.765625 C 16.003906 -0.0664062 14.46875 0.28125 12.78125 0.28125 C 10.78125 0.28125 9.015625 -0.160156 7.484375 -1.046875 C 5.960938 -1.941406 4.78125 -3.234375 3.9375 -4.921875 C 3.09375 -6.609375 2.671875 -8.585938 2.671875 -10.859375 L 2.671875 -26.125 L 10.625 -26.125 L 10.625 -11.9375 C 10.625 -10.1875 11.078125 -8.828125 11.984375 -7.859375 C 12.890625 -6.898438 14.109375 -6.421875 15.640625 -6.421875 C 17.203125 -6.421875 18.4375 -6.898438 19.34375 -7.859375 C 20.25 -8.828125 20.703125 -10.1875 20.703125 -11.9375 L 20.703125 -26.125 Z M 28.703125 -26.125 "/></g></g></g><g fill="#2596be" fill-opacity="1"><g transform="translate(255.905077, 297.828791)"><g><path d="M 6.9375 -28.84375 C 5.53125 -28.84375 4.378906 -29.253906 3.484375 -30.078125 C 2.597656 -30.910156 2.15625 -31.9375 2.15625 -33.15625 C 2.15625 -34.40625 2.597656 -35.441406 3.484375 -36.265625 C 4.378906 -37.097656 5.53125 -37.515625 6.9375 -37.515625 C 8.300781 -37.515625 9.425781 -37.097656 10.3125 -36.265625 C 11.207031 -35.441406 11.65625 -34.40625 11.65625 -33.15625 C 11.65625 -31.9375 11.207031 -30.910156 10.3125 -30.078125 C 9.425781 -29.253906 8.300781 -28.84375 6.9375 -28.84375 Z M 10.90625 -26.125 L 10.90625 0 L 2.90625 0 L 2.90625 -26.125 Z M 10.90625 -26.125 "/></g></g></g><g fill="#2596be" fill-opacity="1"><g transform="translate(269.720117, 297.828791)"><g><path d="M 13.53125 0.375 C 11.25 0.375 9.21875 -0.015625 7.4375 -0.796875 C 5.664062 -1.578125 4.265625 -2.644531 3.234375 -4 C 2.203125 -5.363281 1.625 -6.882812 1.5 -8.5625 L 9.40625 -8.5625 C 9.5 -7.664062 9.921875 -6.9375 10.671875 -6.375 C 11.421875 -5.8125 12.34375 -5.53125 13.4375 -5.53125 C 14.4375 -5.53125 15.207031 -5.722656 15.75 -6.109375 C 16.300781 -6.503906 16.578125 -7.015625 16.578125 -7.640625 C 16.578125 -8.378906 16.1875 -8.925781 15.40625 -9.28125 C 14.625 -9.644531 13.359375 -10.046875 11.609375 -10.484375 C 9.734375 -10.921875 8.171875 -11.378906 6.921875 -11.859375 C 5.679688 -12.347656 4.609375 -13.113281 3.703125 -14.15625 C 2.796875 -15.207031 2.34375 -16.625 2.34375 -18.40625 C 2.34375 -19.90625 2.753906 -21.269531 3.578125 -22.5 C 4.410156 -23.726562 5.628906 -24.703125 7.234375 -25.421875 C 8.835938 -26.140625 10.75 -26.5 12.96875 -26.5 C 16.25 -26.5 18.832031 -25.6875 20.71875 -24.0625 C 22.601562 -22.445312 23.6875 -20.296875 23.96875 -17.609375 L 16.578125 -17.609375 C 16.453125 -18.515625 16.050781 -19.234375 15.375 -19.765625 C 14.707031 -20.296875 13.828125 -20.5625 12.734375 -20.5625 C 11.796875 -20.5625 11.078125 -20.378906 10.578125 -20.015625 C 10.078125 -19.660156 9.828125 -19.171875 9.828125 -18.546875 C 9.828125 -17.796875 10.222656 -17.234375 11.015625 -16.859375 C 11.816406 -16.484375 13.0625 -16.109375 14.75 -15.734375 C 16.6875 -15.234375 18.265625 -14.738281 19.484375 -14.25 C 20.703125 -13.769531 21.769531 -12.988281 22.6875 -11.90625 C 23.601562 -10.832031 24.078125 -9.394531 24.109375 -7.59375 C 24.109375 -6.0625 23.679688 -4.691406 22.828125 -3.484375 C 21.972656 -2.285156 20.738281 -1.34375 19.125 -0.65625 C 17.519531 0.03125 15.65625 0.375 13.53125 0.375 Z M 13.53125 0.375 "/></g></g></g><g fill="#2596be" fill-opacity="1"><g transform="translate(295.851604, 297.828791)"><g><path d="M 6.9375 -28.84375 C 5.53125 -28.84375 4.378906 -29.253906 3.484375 -30.078125 C 2.597656 -30.910156 2.15625 -31.9375 2.15625 -33.15625 C 2.15625 -34.40625 2.597656 -35.441406 3.484375 -36.265625 C 4.378906 -37.097656 5.53125 -37.515625 6.9375 -37.515625 C 8.300781 -37.515625 9.425781 -37.097656 10.3125 -36.265625 C 11.207031 -35.441406 11.65625 -34.40625 11.65625 -33.15625 C 11.65625 -31.9375 11.207031 -30.910156 10.3125 -30.078125 C 9.425781 -29.253906 8.300781 -28.84375 6.9375 -28.84375 Z M 10.90625 -26.125 L 10.90625 0 L 2.90625 0 L 2.90625 -26.125 Z M 10.90625 -26.125 "/></g></g></g><g fill="#2596be" fill-opacity="1"><g transform="translate(309.666643, 297.828791)"><g><path d="M 18.828125 -26.40625 C 21.878906 -26.40625 24.316406 -25.414062 26.140625 -23.4375 C 27.972656 -21.457031 28.890625 -18.734375 28.890625 -15.265625 L 28.890625 0 L 20.9375 0 L 20.9375 -14.1875 C 20.9375 -15.9375 20.484375 -17.296875 19.578125 -18.265625 C 18.671875 -19.234375 17.453125 -19.71875 15.921875 -19.71875 C 14.390625 -19.71875 13.171875 -19.234375 12.265625 -18.265625 C 11.359375 -17.296875 10.90625 -15.9375 10.90625 -14.1875 L 10.90625 0 L 2.90625 0 L 2.90625 -26.125 L 10.90625 -26.125 L 10.90625 -22.671875 C 11.71875 -23.816406 12.8125 -24.722656 14.1875 -25.390625 C 15.5625 -26.066406 17.109375 -26.40625 18.828125 -26.40625 Z M 18.828125 -26.40625 "/></g></g></g><g fill="#2596be" fill-opacity="1"><g transform="translate(341.230497, 297.828791)"><g><path d="M 27.53125 -13.484375 C 27.53125 -12.734375 27.484375 -11.953125 27.390625 -11.140625 L 9.265625 -11.140625 C 9.390625 -9.515625 9.910156 -8.273438 10.828125 -7.421875 C 11.753906 -6.566406 12.890625 -6.140625 14.234375 -6.140625 C 16.234375 -6.140625 17.625 -6.976562 18.40625 -8.65625 L 26.921875 -8.65625 C 26.484375 -6.945312 25.695312 -5.40625 24.5625 -4.03125 C 23.425781 -2.65625 22 -1.578125 20.28125 -0.796875 C 18.5625 -0.015625 16.640625 0.375 14.515625 0.375 C 11.953125 0.375 9.671875 -0.171875 7.671875 -1.265625 C 5.679688 -2.359375 4.125 -3.914062 3 -5.9375 C 1.875 -7.96875 1.3125 -10.34375 1.3125 -13.0625 C 1.3125 -15.78125 1.863281 -18.15625 2.96875 -20.1875 C 4.082031 -22.21875 5.632812 -23.773438 7.625 -24.859375 C 9.625 -25.953125 11.921875 -26.5 14.515625 -26.5 C 17.046875 -26.5 19.289062 -25.96875 21.25 -24.90625 C 23.21875 -23.851562 24.753906 -22.34375 25.859375 -20.375 C 26.972656 -18.40625 27.53125 -16.109375 27.53125 -13.484375 Z M 19.34375 -15.59375 C 19.34375 -16.96875 18.875 -18.0625 17.9375 -18.875 C 17 -19.6875 15.828125 -20.09375 14.421875 -20.09375 C 13.078125 -20.09375 11.941406 -19.703125 11.015625 -18.921875 C 10.097656 -18.140625 9.53125 -17.03125 9.3125 -15.59375 Z M 19.34375 -15.59375 "/></g></g></g></svg>